<svg width="16" height="16" viewBox="0 0 16 16" fill="none" xmlns="http://www.w3.org/2000/svg">
    <g clip-path="url(#clip0_1146_726)">
        <path
            d="M14.1902 1.23077H12.3404V0.615385C12.3404 0.452174 12.2755 0.295649 12.1598 0.180242C12.0442 0.064835 11.8873 0 11.7238 0C11.5603 0 11.4034 0.064835 11.2878 0.180242C11.1722 0.295649 11.1072 0.452174 11.1072 0.615385V1.23077H4.94121V0.615385C4.94121 0.452174 4.87624 0.295649 4.76061 0.180242C4.64497 0.064835 4.48814 0 4.3246 0C4.16107 0 4.00424 0.064835 3.8886 0.180242C3.77297 0.295649 3.708 0.452174 3.708 0.615385V1.23077H1.8582C1.53114 1.23077 1.21747 1.36044 0.986196 1.59125C0.754926 1.82207 0.625 2.13512 0.625 2.46154V14.7692C0.625 15.0957 0.754926 15.4087 0.986196 15.6395C1.21747 15.8703 1.53114 16 1.8582 16H14.1902C14.5173 16 14.831 15.8703 15.0622 15.6395C15.2935 15.4087 15.4234 15.0957 15.4234 14.7692V2.46154C15.4234 2.13512 15.2935 1.82207 15.0622 1.59125C14.831 1.36044 14.5173 1.23077 14.1902 1.23077V1.23077ZM14.1902 4.92308H1.8582V2.46154H3.708V3.07692C3.708 3.24013 3.77297 3.39666 3.8886 3.51207C4.00424 3.62747 4.16107 3.69231 4.3246 3.69231C4.48814 3.69231 4.64497 3.62747 4.76061 3.51207C4.87624 3.39666 4.94121 3.24013 4.94121 3.07692V2.46154H11.1072V3.07692C11.1072 3.24013 11.1722 3.39666 11.2878 3.51207C11.4034 3.62747 11.5603 3.69231 11.7238 3.69231C11.8873 3.69231 12.0442 3.62747 12.1598 3.51207C12.2755 3.39666 12.3404 3.24013 12.3404 3.07692V2.46154H14.1902V4.92308Z"
            fill="white" />
    </g>
    <defs>
        <clipPath id="clip0_1146_726">
            <rect width="16" height="16" fill="white" />
        </clipPath>
    </defs>
</svg>
    