<svg width="32" height="32" viewBox="0 0 32 32" fill="none" xmlns="http://www.w3.org/2000/svg">
<path fill-rule="evenodd" clip-rule="evenodd" d="M4.05401 4.05745C3.22112 4.88844 2.70912 5.9995 2.42911 7.90664C2.13855 9.88562 2.13333 12.4316 2.13333 15.9971C2.13333 19.5625 2.13854 22.1086 2.42912 24.0884C2.70914 25.9962 3.22132 27.1099 4.05573 27.9443L4.05745 27.946C4.88844 28.7789 5.9995 29.2909 7.90664 29.5709C9.88562 29.8615 12.4316 29.8667 15.9971 29.8667C19.5625 29.8667 22.1086 29.8615 24.0884 29.5709C25.9962 29.2909 27.1099 28.7787 27.9443 27.9443C28.779 27.1095 29.291 25.997 29.5709 24.0905C29.8615 22.1115 29.8667 19.5655 29.8667 15.9971C29.8667 12.4287 29.8615 9.88271 29.5709 7.90374C29.2911 5.99786 28.7794 4.88541 27.9451 4.05077C27.1107 3.21866 25.9979 2.7078 24.0912 2.42848C22.1118 2.13853 19.5654 2.13333 15.9971 2.13333C12.4286 2.13333 9.88274 2.13855 7.90456 2.42909C5.99872 2.70901 4.88877 3.22079 4.05745 4.05401L4.05401 4.05745ZM29.4528 2.54143C32 5.08867 32 8.98205 32 15.9971C32 23.0122 32 26.9055 29.4528 29.4528C26.9055 32 23.0063 32 15.9971 32C8.98785 32 5.08867 32 2.54724 29.4528C0 26.9055 0 23.0063 0 15.9971C0 8.98785 0 5.08867 2.54724 2.54724C5.08867 0 8.98205 0 15.9971 0C23.0122 0 26.9055 0 29.4528 2.54143Z" fill="white"/>
<path fill-rule="evenodd" clip-rule="evenodd" d="M23.0276 6.43385C22.4639 6.43385 21.9107 6.6615 21.513 7.06123C21.1121 7.45925 20.8828 8.01326 20.8828 8.57896C20.8828 9.14248 21.1131 9.69575 21.513 10.0955C21.91 10.4935 22.4639 10.7231 23.0276 10.7231C23.5929 10.7231 24.1442 10.4935 24.5438 10.0955C24.9437 9.69575 25.1721 9.1415 25.1721 8.57896C25.1721 8.01326 24.9437 7.45925 24.5438 7.06123C24.1459 6.6615 23.5929 6.43385 23.0276 6.43385Z" fill="white"/>
<path fill-rule="evenodd" clip-rule="evenodd" d="M16.0574 21.4575C18.7287 21.4575 20.8941 19.292 20.8941 16.6208C20.8941 13.9496 18.7287 11.7841 16.0574 11.7841C13.3862 11.7841 11.2207 13.9496 11.2207 16.6208C11.2207 19.292 13.3862 21.4575 16.0574 21.4575ZM16.0574 23.5908C19.9069 23.5908 23.0274 20.4702 23.0274 16.6208C23.0274 12.7714 19.9069 9.65078 16.0574 9.65078C12.208 9.65078 9.08741 12.7714 9.08741 16.6208C9.08741 20.4702 12.208 23.5908 16.0574 23.5908Z" fill="white"/>
</svg>
