<svg width="16" height="16" viewBox="0 0 16 16" fill="none" xmlns="http://www.w3.org/2000/svg">
    <g clip-path="url(#clip0_1146_721)">
        <path
            d="M8.33333 0C6.65421 0.0018906 5.04441 0.664767 3.85709 1.8432C2.66978 3.02164 2.0019 4.6194 2 6.28596C2 11.6647 7.75758 15.7292 8.00227 15.9006C8.10034 15.9654 8.21552 16 8.33333 16C8.45115 16 8.56633 15.9654 8.66439 15.9006C8.90909 15.7292 14.6667 11.6647 14.6667 6.28596C14.6648 4.6194 13.9969 3.02164 12.8096 1.8432C11.6223 0.664767 10.0125 0.0018906 8.33333 0V0ZM8.33333 4.00016C8.78883 4.00016 9.2341 4.13422 9.61283 4.38538C9.99156 4.63655 10.2867 4.99354 10.4611 5.41122C10.6354 5.8289 10.681 6.28849 10.5921 6.7319C10.5032 7.1753 10.2839 7.58259 9.96182 7.90227C9.63974 8.22194 9.22938 8.43964 8.78263 8.52784C8.33589 8.61604 7.87283 8.57077 7.452 8.39777C7.03118 8.22476 6.67149 7.93178 6.41843 7.55588C6.16537 7.17998 6.0303 6.73805 6.0303 6.28596C6.0303 5.67973 6.27294 5.09832 6.70484 4.66965C7.13675 4.24098 7.72253 4.00016 8.33333 4.00016V4.00016Z"
            fill="white" />
    </g>
    <defs>
        <clipPath id="clip0_1146_721">
            <rect width="16" height="16" fill="white" />
        </clipPath>
    </defs>
</svg>
    