<svg width="16" height="16" viewBox="0 0 16 16" fill="none" xmlns="http://www.w3.org/2000/svg">
    <g clip-path="url(#clip0_1146_711)">
        <path
            d="M15.2229 10.7441L11.4652 9.14169C11.2714 9.05479 11.0585 9.01875 10.8468 9.03697C10.6351 9.0552 10.4316 9.12709 10.2554 9.24585L8.24439 10.5839C7.01875 9.98858 6.02641 9.00187 5.42415 7.77964V7.77964L6.75415 5.74458C6.87213 5.56822 6.94418 5.36518 6.96376 5.15391C6.98335 4.94263 6.94986 4.72981 6.86632 4.53476L5.2559 0.777112C5.14353 0.523382 4.95325 0.312043 4.71267 0.173744C4.47208 0.0354442 4.1937 -0.0226254 3.91789 0.00795578C2.83594 0.149692 1.84227 0.679503 1.12162 1.49888C0.400982 2.31827 0.0024055 3.37146 0 4.46265C0 10.8242 5.17578 16 11.5373 16C12.6285 15.9976 13.6817 15.599 14.5011 14.8784C15.3205 14.1577 15.8503 13.1641 15.992 12.0821C16.0226 11.8063 15.9646 11.5279 15.8263 11.2873C15.688 11.0467 15.4766 10.8565 15.2229 10.7441Z"
            fill="white" />
    </g>
    <defs>
        <clipPath id="clip0_1146_711">
            <rect width="16" height="16" fill="white" />
        </clipPath>
    </defs>
</svg>