<svg width="32" height="32" viewBox="0 0 32 32" fill="none" xmlns="http://www.w3.org/2000/svg">
<path fill-rule="evenodd" clip-rule="evenodd" d="M4.05401 4.05745C3.22112 4.88844 2.70912 5.9995 2.42911 7.90664C2.13855 9.88562 2.13333 12.4316 2.13333 15.9971C2.13333 19.5625 2.13854 22.1086 2.42912 24.0884C2.70914 25.9962 3.22132 27.1099 4.05573 27.9443L4.05745 27.946C4.88844 28.7789 5.9995 29.2909 7.90664 29.5709C9.88562 29.8615 12.4316 29.8667 15.9971 29.8667C19.5625 29.8667 22.1086 29.8615 24.0884 29.5709C25.9962 29.2909 27.1099 28.7787 27.9443 27.9443C28.779 27.1095 29.291 25.997 29.5709 24.0905C29.8615 22.1115 29.8667 19.5655 29.8667 15.9971C29.8667 12.4287 29.8615 9.88271 29.5709 7.90374C29.2911 5.99786 28.7794 4.88541 27.9451 4.05077C27.1107 3.21866 25.9979 2.7078 24.0912 2.42848C22.1118 2.13853 19.5654 2.13333 15.9971 2.13333C12.4286 2.13333 9.88274 2.13855 7.90456 2.42909C5.99872 2.70901 4.88877 3.22079 4.05745 4.05401L4.05401 4.05745ZM29.4528 2.54143C32 5.08867 32 8.98205 32 15.9971C32 23.0122 32 26.9055 29.4528 29.4528C26.9055 32 23.0063 32 15.9971 32C8.98785 32 5.08867 32 2.54724 29.4528C0 26.9055 0 23.0063 0 15.9971C0 8.98785 0 5.08867 2.54724 2.54724C5.08867 0 8.98205 0 15.9971 0C23.0122 0 26.9055 0 29.4528 2.54143Z" fill="white"/>
<path d="M23.9493 9.37567L21.2666 22.1989C21.0642 23.104 20.5363 23.3292 19.7863 22.9029L15.6986 19.8499L13.7262 21.7726C13.5079 21.9938 13.3254 22.1788 12.9047 22.1788L13.1984 17.9594L20.7745 11.0208C21.1039 10.7232 20.703 10.5582 20.2625 10.8559L10.8966 16.8331L6.86449 15.554C5.98743 15.2765 5.97155 14.6651 7.04705 14.2387L22.8183 8.08047C23.5485 7.80293 24.1875 8.24539 23.9493 9.37567Z" fill="white"/>
</svg>
