<svg width="32" height="32" viewBox="0 0 32 32" fill="none" xmlns="http://www.w3.org/2000/svg">
<path fill-rule="evenodd" clip-rule="evenodd" d="M4.05401 4.05745C3.22112 4.88844 2.70912 5.9995 2.42911 7.90664C2.13855 9.88562 2.13333 12.4316 2.13333 15.9971C2.13333 19.5625 2.13854 22.1086 2.42912 24.0884C2.70914 25.9962 3.22132 27.1099 4.05573 27.9443L4.05745 27.946C4.88844 28.7789 5.9995 29.2909 7.90664 29.5709C9.88562 29.8615 12.4316 29.8667 15.9971 29.8667C19.5625 29.8667 22.1086 29.8615 24.0884 29.5709C25.9962 29.2909 27.1099 28.7787 27.9443 27.9443C28.779 27.1095 29.291 25.997 29.5709 24.0905C29.8615 22.1115 29.8667 19.5655 29.8667 15.9971C29.8667 12.4287 29.8615 9.88271 29.5709 7.90374C29.2911 5.99786 28.7794 4.88541 27.9451 4.05077C27.1107 3.21866 25.9979 2.7078 24.0912 2.42848C22.1118 2.13853 19.5654 2.13333 15.9971 2.13333C12.4286 2.13333 9.88274 2.13855 7.90456 2.42909C5.99872 2.70901 4.88877 3.22079 4.05745 4.05401L4.05401 4.05745ZM29.4528 2.54143C32 5.08867 32 8.98205 32 15.9971C32 23.0122 32 26.9055 29.4528 29.4528C26.9055 32 23.0063 32 15.9971 32C8.98785 32 5.08867 32 2.54724 29.4528C0 26.9055 0 23.0063 0 15.9971C0 8.98785 0 5.08867 2.54724 2.54724C5.08867 0 8.98205 0 15.9971 0C23.0122 0 26.9055 0 29.4528 2.54143Z" fill="white"/>
<path fill-rule="evenodd" clip-rule="evenodd" d="M23.6514 9.58286C24.489 9.80844 25.1495 10.4688 25.3749 11.3065C25.7938 12.8367 25.7777 16.0262 25.7777 16.0262C25.7777 16.0262 25.7777 19.1995 25.3751 20.7298C25.1495 21.5674 24.4891 22.2279 23.6514 22.4533C22.1211 22.8561 16 22.8561 16 22.8561C16 22.8561 9.89485 22.8561 8.34857 22.4373C7.51083 22.2118 6.85049 21.5513 6.6249 20.7137C6.22222 19.1995 6.22222 16.0101 6.22222 16.0101C6.22222 16.0101 6.22222 12.8367 6.6249 11.3065C6.85034 10.4689 7.52695 9.79233 8.34842 9.56689C9.87874 9.16406 15.9998 9.16406 15.9998 9.16406C15.9998 9.16406 22.1211 9.16406 23.6514 9.58286ZM19.1398 16.0093L14.0497 18.9411V13.0776L19.1398 16.0093Z" fill="white"/>
</svg>
