<svg width="1283" height="300" viewBox="0 0 1283 300" fill="none" xmlns="http://www.w3.org/2000/svg">
<path d="M107.029 77.5875C105.009 78.8195 103.126 81.1864 102.391 83.4193C98.6434 94.7803 112.101 103.734 120.633 95.5563C130.892 85.7224 119.141 70.1993 107.029 77.5875Z" fill="#1E62C7"/>
<path d="M85.043 9.82237C71.0806 11.5927 59.5089 13.1803 59.3285 13.3511C59.147 13.5207 69.471 27.2767 82.2699 43.9194L105.54 74.1798L113.67 71.3871L116.028 40.7528C117.325 23.9047 118.42 9.26902 118.459 8.22824C118.554 5.73275 116.54 5.82894 85.043 9.82237Z" fill="#F39712"/>
<path d="M142.837 2.93681L120.151 5.79651L117.647 38.6507C117.566 39.7229 117.485 40.7703 117.407 41.7928C115.891 61.608 115.089 72.0757 117.714 73.0207C120.653 74.0789 127.888 63.1951 143.225 40.1229L143.272 40.0525L143.299 40.012C143.982 38.9847 144.681 37.9333 145.396 36.8577C158.545 17.0873 169.303 0.672606 169.303 0.38188C169.303 -0.36601 168.165 -0.255772 142.837 2.93681Z" fill="#FCC300"/>
<path d="M147.037 37.2727C122.204 74.9223 121.517 76.1425 124.505 77.2892C127.222 78.3321 177.945 52.9438 177.945 50.5402C177.945 47.8502 171.336 2.6115 170.875 2.14785C170.653 1.92521 159.925 17.7314 147.037 37.2727Z" fill="#FFC624"/>
<path d="M150.641 67.4769C128.233 78.7601 126.136 80.0516 127.145 81.9386C128.87 85.1625 128.448 90.8452 126.209 94.5165L124.174 97.855L139.705 111.568C148.247 119.109 155.864 125.52 156.632 125.816C157.65 126.207 160.477 117.061 167.084 92.0124C172.065 73.1261 176.356 57.0659 176.619 56.3223C177.408 54.0884 176.191 54.6104 150.641 67.4769Z" fill="#FCC300"/>
<path d="M178.611 54.7012C174.755 67.7233 159.58 125.58 159.929 125.929C160.47 126.47 230.141 55.5604 230.692 53.909C230.933 53.1838 222.22 52.8098 205.115 52.8098C181.34 52.8098 179.124 52.9676 178.611 54.7012Z" fill="#F39712"/>
<path d="M197.531 90.2378C178.444 109.68 163.008 125.768 163.229 125.99C163.545 126.305 235.208 103.863 235.922 103.224C236.321 102.865 233.178 55.8306 232.723 55.3766C232.455 55.1075 216.618 70.7959 197.531 90.2378Z" fill="#FCC300"/>
<path d="M161.741 129.752C163.173 131.084 234.362 169.649 234.724 169.288C234.953 169.059 235.473 154.673 235.882 137.319C236.602 106.7 236.563 105.771 234.56 105.892C233.426 105.96 217.186 110.956 198.47 116.996L195.979 117.8C164.943 127.815 161.446 128.943 161.535 129.505C161.546 129.576 161.615 129.638 161.693 129.708L161.712 129.725L161.728 129.739L161.741 129.752Z" fill="#FED324"/>
<path d="M159.581 131.459C159.581 131.988 161.282 140.853 163.362 151.159C165.441 161.466 167.143 170.059 167.143 170.256C167.143 170.452 181.58 170.613 199.226 170.613C218.037 170.613 230.885 170.216 230.284 169.65C229.719 169.122 213.945 160.304 195.229 150.056C176.514 139.808 160.836 131.215 160.391 130.96C159.946 130.706 159.581 130.93 159.581 131.459Z" fill="#F6A708"/>
<path d="M120.151 100.64C118.963 101.349 115.632 101.941 112.747 101.957L107.504 101.985L101.331 119.277C97.7165 129.402 95.636 136.691 96.3122 136.864C97.5297 137.174 155.265 128.822 155.826 128.254C156.22 127.853 124.497 99.9971 123.215 99.6189C122.718 99.4719 121.34 99.9323 120.151 100.64Z" fill="#F39712"/>
<path d="M75.5648 99.2341C64.1129 102.658 54.5311 105.672 54.2707 105.932C53.9002 106.302 82.8263 129.392 91.6098 135.738C93.2724 136.939 94.075 135.328 99.8392 119.211L106.227 101.352L102.16 97.0758C99.9224 94.723 97.709 92.8457 97.2391 92.903C96.7702 92.9613 87.0166 95.8102 75.5648 99.2341Z" fill="#FBBA00"/>
<path d="M51.555 104.534L58.3066 102.59C62.0205 101.52 72.4882 98.5143 81.5699 95.9107L98.0827 91.177L97.4659 83.7543L83.4226 78.6477C75.6987 75.8388 65.3693 72.0723 60.4671 70.2761L51.555 67.0111V104.534Z" fill="#FED324"/>
<path d="M54.5062 40.5658C52.888 54.0419 51.6835 65.1543 51.8293 65.2602C51.9763 65.3661 62.4828 69.231 75.1791 73.8491L98.2621 82.2445L100.796 79.1459C102.19 77.4405 103.343 75.5599 103.358 74.9655C103.391 73.6329 59.2626 16.0638 58.2072 16.0638C57.7891 16.0638 56.1244 27.0898 54.5062 40.5658Z" fill="#FCC300"/>
<path d="M51.1455 110.88C49.7855 120.027 46.9779 154.507 47.5483 155.076C48.2299 155.758 91.4683 139.084 91.5029 138.127C91.5213 137.603 67.5644 118.619 55.7582 109.8L51.7516 106.806L51.1455 110.88Z" fill="#F39712"/>
<path d="M24.367 106.762C18.0291 107.106 12.5241 107.707 12.1352 108.097C11.7464 108.488 18.8771 119.03 27.9805 131.526C40.3397 148.49 44.7212 153.786 45.2765 152.433C45.6859 151.435 46.9217 140.527 48.0225 128.193L50.0253 105.767L42.9583 105.951C39.0715 106.053 30.7049 106.418 24.367 106.762Z" fill="#FCC300"/>
<path d="M8.95928 114.532C8.60496 117.142 6.85062 134.597 5.06063 153.321C3.27064 172.045 1.32294 191.935 0.732038 197.52C0.141137 203.105 -0.152694 207.865 0.0795618 208.097C1.06152 209.079 45.0129 157.247 44.1498 156.125C43.6518 155.474 36.5307 145.702 28.3262 134.408C27.507 133.28 26.7239 132.202 25.9753 131.171L25.9688 131.161L25.9538 131.141L25.9515 131.138C14.3777 115.198 11.0469 110.61 9.85498 111.112C9.37338 111.314 9.24101 112.348 9.05515 113.799C9.02515 114.033 8.99376 114.278 8.95928 114.532Z" fill="#F39712"/>
<path d="M24.3476 183.327C12.6516 196.82 3.25552 208.032 3.46725 208.243C4.01494 208.791 85.0581 189.644 84.9695 188.988C84.8917 188.405 47.4953 159.421 46.32 159.032C45.9311 158.903 36.0435 169.836 24.3476 183.327Z" fill="#FCC300"/>
<path d="M43.8084 200.669C22.0207 205.83 4.39519 210.253 4.64041 210.498C5.34258 211.2 79.0529 228.775 79.5142 228.349C79.8988 227.994 86.1167 193.746 86.121 191.958C86.1243 190.668 85.4264 190.812 43.8084 200.669Z" fill="#F39712"/>
<path d="M2.4032 212.506C4.68794 214.759 58.3152 256.167 59.4938 256.586C61.8142 257.412 78.9654 230.744 76.7131 229.811C75.6501 229.37 59.2248 225.334 40.2122 220.839C21.1997 216.345 4.67174 212.391 3.48346 212.053C2.05751 211.648 1.69023 211.801 2.4032 212.506Z" fill="#FBC200"/>
<path d="M70.4951 245.068C65.7614 252.09 62.0961 258.272 62.351 258.806C62.9311 260.023 93.8028 284.094 94.7826 284.094C95.179 284.094 92.0949 272.421 87.9294 258.155C83.7639 243.889 80.0738 232.236 79.7292 232.259C79.3835 232.282 75.2288 238.047 70.4951 245.068Z" fill="#F8A809"/>
<path d="M83.105 236.54C83.4031 237.432 86.6925 248.617 90.4162 261.398C94.1398 274.178 97.3568 284.822 97.5642 285.052C98.5192 286.11 112.023 276.171 111.167 275.039C110.662 274.372 104.497 265.559 97.4659 255.453C84.2554 236.468 82.1608 233.709 83.105 236.54Z" fill="#FCC300"/>
<path d="M69.9193 148.817C58.3336 153.406 49.0498 157.633 49.2886 158.213C49.9832 159.894 86.6039 188.105 86.8513 187.149C86.9745 186.673 88.0979 177.53 89.3478 166.831C90.5976 156.131 91.8961 145.796 92.2321 143.864C92.2792 143.594 92.3291 143.339 92.3758 143.101C92.5596 142.161 92.6935 141.477 92.412 141.129C91.6566 140.194 87.9097 141.681 74.1085 147.156C72.804 147.674 71.4095 148.227 69.9193 148.817Z" fill="#FED324"/>
<path d="M122.044 134.9C107.638 137.104 95.5128 139.244 95.1002 139.657C94.3062 140.451 88.3226 185.998 88.9211 186.689C89.1944 187.003 133.405 149.444 151.479 133.544L154.72 130.693L151.479 130.794C149.696 130.85 136.45 132.698 122.044 134.9Z" fill="#FCC300"/>
<path d="M124.22 159.052C106.256 174.544 91.6952 187.356 91.8615 187.523C92.3714 188.032 163.827 171.048 164.654 170.222C165.457 169.417 158.72 132.759 157.548 131.565C157.18 131.191 142.183 143.56 124.22 159.052Z" fill="#FCC300"/>
<path d="M87.8495 193.103C86.7962 196.668 81.5613 228.013 81.9534 228.405C82.4579 228.91 166.198 225.956 166.741 225.415C166.961 225.194 153.409 219.131 136.624 211.943C119.84 204.755 102.121 197.163 97.2488 195.074C89.4137 191.714 88.3269 191.486 87.8495 193.103Z" fill="#FED324"/>
<path d="M157.42 239.462C140.65 253.41 115.152 275.671 115.527 276.039C115.784 276.289 142.433 278.113 158.429 278.973L163.22 279.23L166.738 257.075C168.672 244.889 170.514 233.581 170.832 231.947C171.649 227.74 171.241 227.969 157.42 239.462Z" fill="#F6A708"/>
<path d="M122.852 229.034C112.455 229.451 99.1554 229.851 93.2994 229.924C92.2029 229.937 91.1954 229.932 90.281 229.927C86.9252 229.909 84.825 229.897 84.1937 230.855C83.1376 232.457 86.1912 236.771 94.3527 248.3L94.354 248.302L94.3639 248.316L94.3671 248.321C95.6923 250.193 97.1519 252.255 98.7504 254.526L113.505 275.492L116.288 272.973C126.679 263.563 140.611 251.564 153.37 241.033C161.539 234.291 168.223 228.576 168.223 228.334C168.223 227.753 146.42 228.089 122.852 229.034Z" fill="#FCC300"/>
<path d="M172.174 232.387C169.687 246.27 164.895 278.962 165.289 279.358C166.591 280.659 229.722 301.056 229.047 299.957C227.839 297.987 176.794 233.016 174.687 230.765C172.892 228.847 172.798 228.909 172.174 232.387Z" fill="#FBC200"/>
<path d="M177.582 231.811C193.05 251.602 230.207 298.861 230.834 299.543C231.268 300.015 235.913 288.953 241.155 274.958C246.398 260.964 250.485 249.318 250.235 249.078C249.987 248.838 233.741 244.195 214.134 238.76C194.527 233.325 177.545 228.595 176.396 228.25C174.678 227.734 174.889 228.365 177.582 231.811Z" fill="#F39712"/>
<path d="M218.48 211.94C186.493 222.679 176.888 226.299 178.51 227C181.589 228.333 250.643 247.387 251.021 247.008C252.227 245.802 262.723 197.649 261.765 197.718C261.116 197.764 241.637 204.165 218.48 211.94Z" fill="#FCC300"/>
<path d="M205.708 197.87C189.191 212.145 175.855 224.001 176.071 224.218C176.731 224.877 261.125 196.427 261.125 195.545C261.125 194.809 241.406 176.228 237.359 173.15C236.031 172.139 230.326 176.595 205.708 197.87Z" fill="#F7A607"/>
<path d="M168.063 172.215C167.523 172.754 172.452 222.739 173.112 223.411C173.605 223.913 231.312 174.052 231.778 172.722C232.142 171.683 169.096 171.182 168.063 172.215Z" fill="#FCC300"/>
<path d="M128.523 180.765C108.173 185.558 91.5245 189.772 91.5245 190.13C91.5245 190.924 170.537 224.859 171.092 224.304C171.458 223.937 166.142 172.388 165.714 172.153C165.609 172.096 148.873 175.971 128.523 180.765Z" fill="#F39712"/>
<path d="M317.826 16H321.826V284H317.826V16Z" fill="#CCCCCC"/>
<path d="M418.1 109.844V75.9375H384.959V94.4219C384.959 101.422 384.631 106.453 383.975 109.844H379.381V126.25H387.584V117.5H414.928V126.25H423.131V109.844H418.1ZM392.068 109.953C392.725 105.688 393.162 100.109 393.162 94.4219V83.4844H409.787V109.953H392.068Z" fill="#1E62C7"/>
<path d="M439.1 110.062V99.7812H455.397V92.5625H439.1V83.375H460.318V75.9375H430.787V117.5H460.865V110.062H439.1Z" fill="#1E62C7"/>
<path d="M504.287 75.9375H468.85V117.5H477.272V83.5938H495.865V117.5H504.287V75.9375Z" fill="#1E62C7"/>
<path d="M544.865 117.5H553.834L537.428 75.9375H527.147L510.74 117.5H519.49L522.772 108.75H541.584L544.865 117.5ZM525.506 101.422L532.178 83.375L538.85 101.422H525.506Z" fill="#1E62C7"/>
<path d="M577.897 75.9375H560.287V117.5H568.709V102.188H577.897C587.522 102.188 593.318 97.2656 593.318 89.0625C593.318 80.9688 587.522 75.9375 577.897 75.9375ZM576.912 95.4062H568.709V83.0469H576.912C582.053 83.0469 584.787 85.125 584.787 89.2812C584.787 93.3281 582.053 95.4062 576.912 95.4062Z" fill="#1E62C7"/>
<path d="M632.365 75.9375H595.287V83.5938H609.615V117.5H618.037V83.5938H632.365V75.9375Z" fill="#1E62C7"/>
<path d="M663.865 117.5H672.834L656.428 75.9375H646.147L629.74 117.5H638.49L641.772 108.75H660.584L663.865 117.5ZM644.506 101.422L651.178 83.375L657.85 101.422H644.506Z" fill="#1E62C7"/>
<path d="M727.522 75.9375H715.162L703.459 107.438L691.865 75.9375H679.287V117.5H687.49V86.2188L699.084 117.5H707.834L719.318 86.5469V117.5H727.522V75.9375Z" fill="#1E62C7"/>
<path d="M747.537 110.062V99.7812H763.834V92.5625H747.537V83.375H768.756V75.9375H739.225V117.5H769.303V110.062H747.537Z" fill="#1E62C7"/>
<path d="M804.303 75.9375V92.3438H785.709V75.9375H777.287V117.5H785.709V100H804.303V117.5H812.725V75.9375H804.303Z" fill="#1E62C7"/>
<path d="M856.693 75.9375H819.615V83.5938H833.943V117.5H842.365V83.5938H856.693V75.9375Z" fill="#1E62C7"/>
<path d="M898.147 118.047C907.006 118.047 913.568 113.453 915.975 105.906L908.1 103.062C906.459 108.312 902.959 110.938 898.037 110.938C891.037 110.938 886.662 105.469 886.662 96.7188C886.662 87.9688 891.147 82.5 898.037 82.5C902.959 82.5 906.459 85.125 908.1 90.375L915.975 87.5312C913.568 79.7656 907.006 75.3906 898.147 75.3906C886.225 75.3906 878.131 84.0312 878.131 96.7188C878.131 109.625 886.115 118.047 898.147 118.047Z" fill="#1E62C7"/>
<path d="M940.365 118.047C952.506 118.047 960.818 109.406 960.818 96.7188C960.818 83.8125 952.725 75.3906 940.365 75.3906C928.225 75.3906 920.022 84.0312 920.022 96.7188C920.022 109.625 928.115 118.047 940.365 118.047ZM940.365 110.719C933.256 110.719 928.553 105.25 928.553 96.7188C928.553 88.1875 933.256 82.7188 940.365 82.7188C947.475 82.7188 952.178 88.1875 952.178 96.7188C952.178 105.25 947.475 110.719 940.365 110.719Z" fill="#1E62C7"/>
<path d="M1004.13 109.844V75.9375H995.709V109.844H977.772V75.9375H969.35V117.5H1000.96V126.25H1009.05V109.844H1004.13Z" fill="#1E62C7"/>
<path d="M1016.82 117.5H1025.24V75.9375H1016.82V117.5Z" fill="#1E62C7"/>
<path d="M1065.82 117.5H1074.79L1058.38 75.9375H1048.1L1031.69 117.5H1040.44L1043.72 108.75H1062.54L1065.82 117.5ZM1046.46 101.422L1053.13 83.375L1059.8 101.422H1046.46Z" fill="#1E62C7"/>
<path d="M1116.35 75.9375H1083.97V95.4062C1083.97 109.297 1082.99 109.734 1079.6 109.734H1077.41V117.5C1079.82 117.719 1080.91 117.719 1082.01 117.719C1090.43 117.719 1092.29 111.812 1092.29 96.0625V83.5938H1107.93V117.5H1116.35V75.9375Z" fill="#1E62C7"/>
<path d="M1145.66 91.25H1136.37V75.9375H1127.94V117.5H1145.66C1155.29 117.5 1161.19 112.469 1161.19 104.375C1161.19 96.1719 1155.29 91.25 1145.66 91.25ZM1145.01 110.391H1136.37V98.0312H1145.01C1150.04 98.0312 1152.66 100.109 1152.66 104.156C1152.66 108.312 1150.04 110.391 1145.01 110.391Z" fill="#1E62C7"/>
<path d="M1196.19 75.9375V92.3438H1177.6V75.9375H1169.18V117.5H1177.6V100H1196.19V117.5H1204.62V75.9375H1196.19Z" fill="#1E62C7"/>
<path d="M1233.6 118.047C1245.74 118.047 1254.05 109.406 1254.05 96.7188C1254.05 83.8125 1245.96 75.3906 1233.6 75.3906C1221.46 75.3906 1213.26 84.0312 1213.26 96.7188C1213.26 109.625 1221.35 118.047 1233.6 118.047ZM1233.6 110.719C1226.49 110.719 1221.79 105.25 1221.79 96.7188C1221.79 88.1875 1226.49 82.7188 1233.6 82.7188C1240.71 82.7188 1245.41 88.1875 1245.41 96.7188C1245.41 105.25 1240.71 110.719 1233.6 110.719Z" fill="#1E62C7"/>
<path d="M1256.68 71.5625H1264.88V64.5625H1256.68V71.5625ZM1268.82 71.5625H1277.02V64.5625H1268.82V71.5625ZM1262.58 117.5H1271.01V75.9375H1262.58V117.5Z" fill="#1E62C7"/>
<path d="M416.407 148.938H379.329V156.594H393.657V190.5H402.079V156.594H416.407V148.938Z" fill="#1E62C7"/>
<path d="M448.467 190.5H457.436L441.03 148.938H430.748L414.342 190.5H423.092L426.373 181.75H445.186L448.467 190.5ZM429.108 174.422L435.78 156.375L442.452 174.422H429.108Z" fill="#1E62C7"/>
<path d="M530.743 148.938H518.384L506.681 180.438L495.087 148.938H482.509V190.5H490.712V159.219L502.306 190.5H511.056L522.54 159.547V190.5H530.743V148.938Z" fill="#1E62C7"/>
<path d="M560.397 191.047C572.538 191.047 580.85 182.406 580.85 169.719C580.85 156.812 572.757 148.391 560.397 148.391C548.257 148.391 540.053 157.031 540.053 169.719C540.053 182.625 548.147 191.047 560.397 191.047ZM560.397 183.719C553.288 183.719 548.585 178.25 548.585 169.719C548.585 161.188 553.288 155.719 560.397 155.719C567.507 155.719 572.21 161.188 572.21 169.719C572.21 178.25 567.507 183.719 560.397 183.719Z" fill="#1E62C7"/>
<path d="M623.957 148.938H591.582V168.406C591.582 182.297 590.598 182.734 587.207 182.734H585.02V190.5C587.426 190.719 588.52 190.719 589.613 190.719C598.035 190.719 599.895 184.812 599.895 169.062V156.594H615.535V190.5H623.957V148.938Z" fill="#1E62C7"/>
<path d="M653.502 191.047C665.642 191.047 673.955 182.406 673.955 169.719C673.955 156.812 665.861 148.391 653.502 148.391C641.361 148.391 633.158 157.031 633.158 169.719C633.158 182.625 641.252 191.047 653.502 191.047ZM653.502 183.719C646.392 183.719 641.689 178.25 641.689 169.719C641.689 161.188 646.392 155.719 653.502 155.719C660.611 155.719 665.314 161.188 665.314 169.719C665.314 178.25 660.611 183.719 653.502 183.719Z" fill="#1E62C7"/>
<path d="M716.952 182.844V148.938H683.812V167.422C683.812 174.422 683.484 179.453 682.827 182.844H678.234V199.25H686.437V190.5H713.78V199.25H721.984V182.844H716.952ZM690.921 182.953C691.577 178.688 692.015 173.109 692.015 167.422V156.484H708.64V182.953H690.921Z" fill="#1E62C7"/>
<path d="M730.2 190.5H738.622V148.938H730.2V190.5Z" fill="#1E62C7"/>
<path d="M802.291 182.844C801.197 182.844 800.432 182.078 800.432 180.875V165.672H793.541L803.604 148.938H794.416L785.01 165.672H779.869V148.938H771.447V165.672H766.197L756.791 148.938H747.604L757.666 165.672H750.775V180.875C750.775 182.078 750.119 182.844 748.916 182.844H747.494V190.5H751.65C756.463 190.5 759.197 187.875 759.197 182.953V173.109H771.447V190.5H779.869V173.109H792.01V182.953C792.01 187.875 794.744 190.5 799.557 190.5H803.822V182.844H802.291Z" fill="#1E62C7"/>
<path d="M839.601 148.938V165.344H821.007V148.938H812.585V190.5H821.007V173H839.601V190.5H848.023V148.938H839.601Z" fill="#1E62C7"/>
<path d="M877.567 191.047C889.708 191.047 898.02 182.406 898.02 169.719C898.02 156.812 889.927 148.391 877.567 148.391C865.427 148.391 857.224 157.031 857.224 169.719C857.224 182.625 865.317 191.047 877.567 191.047ZM877.567 183.719C870.458 183.719 865.755 178.25 865.755 169.719C865.755 161.188 870.458 155.719 877.567 155.719C884.677 155.719 889.38 161.188 889.38 169.719C889.38 178.25 884.677 183.719 877.567 183.719Z" fill="#1E62C7"/>
<path d="M901.205 144.562H909.408V137.562H901.205V144.562ZM913.346 144.562H921.549V137.562H913.346V144.562ZM907.112 190.5H915.533V148.938H907.112V190.5Z" fill="#1E62C7"/>
<path d="M981.185 148.938H945.747V190.5H954.169V156.594H972.763V190.5H981.185V148.938Z" fill="#1E62C7"/>
<path d="M1010.73 191.047C1022.87 191.047 1031.18 182.406 1031.18 169.719C1031.18 156.812 1023.09 148.391 1010.73 148.391C998.589 148.391 990.385 157.031 990.385 169.719C990.385 182.625 998.479 191.047 1010.73 191.047ZM1010.73 183.719C1003.62 183.719 998.917 178.25 998.917 169.719C998.917 161.188 1003.62 155.719 1010.73 155.719C1017.84 155.719 1022.54 161.188 1022.54 169.719C1022.54 178.25 1017.84 183.719 1010.73 183.719Z" fill="#1E62C7"/>
<path d="M1074.29 148.938H1041.91V168.406C1041.91 182.297 1040.93 182.734 1037.54 182.734H1035.35V190.5C1037.76 190.719 1038.85 190.719 1039.95 190.719C1048.37 190.719 1050.23 184.812 1050.23 169.062V156.594H1065.87V190.5H1074.29V148.938Z" fill="#1E62C7"/>
<path d="M1086.44 190.5H1094.86V148.938H1086.44V190.5Z" fill="#1E62C7"/>
<path d="M1139.39 148.938H1102.32V156.594H1116.64V190.5H1125.07V156.594H1139.39V148.938Z" fill="#1E62C7"/>
<path d="M1174.52 148.938L1155.16 177.484V148.938H1146.84V190.5H1154.94L1174.52 161.734V190.5H1182.72V148.938H1174.52Z" fill="#1E62C7"/>
<path d="M1228.45 182.844C1227.25 182.844 1226.48 182.078 1226.48 180.875V165.672H1218.94L1229.76 148.938H1220.47L1210.4 165.672H1203.29V148.938H1194.87V190.5H1203.29V173.109H1218.06V182.953C1218.06 187.875 1220.79 190.5 1225.61 190.5H1229.87V182.844H1228.45Z" fill="#1E62C7"/>
<path d="M1266.42 148.938L1247.06 177.484V148.938H1238.75V190.5H1246.84L1266.42 161.734V190.5H1274.62V148.938H1266.42Z" fill="#1E62C7"/>
<path d="M396.028 223.981C397.869 222.972 398.937 221.191 398.937 218.934C398.937 215.253 396.206 212.938 391.694 212.938H381.303V235.5H391.872C396.562 235.5 399.353 233.125 399.353 229.325C399.353 226.831 398.165 224.991 396.028 223.981ZM390.981 216.678C393.297 216.678 394.484 217.569 394.484 219.409C394.484 221.25 393.297 222.141 390.981 222.141H385.697V216.678H390.981ZM391.04 231.759H385.697V225.762H391.04C393.594 225.762 394.84 226.772 394.84 228.791C394.84 230.809 393.594 231.759 391.04 231.759Z" fill="#F39712"/>
<path d="M404.044 235.5H408.615V212.938H404.044V235.5Z" fill="#F39712"/>
<path d="M429.575 212.938V221.844H419.481V212.938H414.909V235.5H419.481V226H429.575V235.5H434.147V212.938H429.575Z" fill="#F39712"/>
<path d="M455.106 212.938V221.844H445.012V212.938H440.44V235.5H445.012V226H455.106V235.5H459.678V212.938H455.106Z" fill="#F39712"/>
<path d="M480.993 212.938L470.484 228.434V212.938H465.972V235.5H470.365L480.993 219.884V235.5H485.447V212.938H480.993Z" fill="#F39712"/>
<path d="M510.622 231.344V212.938H506.05V231.344H496.312V212.938H491.74V235.5H508.9V240.25H513.294V231.344H510.622Z" fill="#F39712"/>
<path d="M527.128 221.25H522.081V212.938H517.509V235.5H527.128C532.353 235.5 535.559 232.769 535.559 228.375C535.559 223.922 532.353 221.25 527.128 221.25ZM526.772 231.641H522.081V224.931H526.772C529.503 224.931 530.928 226.059 530.928 228.256C530.928 230.513 529.503 231.641 526.772 231.641Z" fill="#F39712"/>
<path d="M558.122 231.344C557.469 231.344 557.053 230.928 557.053 230.275V222.022H552.956L558.834 212.938H553.787L548.325 222.022H544.465V212.938H539.893V235.5H544.465V226.059H552.481V231.403C552.481 234.075 553.965 235.5 556.578 235.5H558.893V231.344H558.122Z" fill="#F39712"/>
<path d="M572.49 235.797C579.081 235.797 583.594 231.106 583.594 224.219C583.594 217.212 579.2 212.641 572.49 212.641C565.9 212.641 561.447 217.331 561.447 224.219C561.447 231.225 565.84 235.797 572.49 235.797ZM572.49 231.819C568.631 231.819 566.078 228.85 566.078 224.219C566.078 219.587 568.631 216.619 572.49 216.619C576.35 216.619 578.903 219.587 578.903 224.219C578.903 228.85 576.35 231.819 572.49 231.819Z" fill="#F39712"/>
<path d="M585.018 210.562H589.472V206.762H585.018V210.562ZM591.609 210.562H596.062V206.762H591.609V210.562ZM588.225 235.5H592.797V212.938H588.225V235.5Z" fill="#F39712"/>
<path d="M618.031 235.797C624.622 235.797 629.134 231.106 629.134 224.219C629.134 217.212 624.74 212.641 618.031 212.641C611.44 212.641 606.987 217.331 606.987 224.219C606.987 231.225 611.381 235.797 618.031 235.797ZM618.031 231.819C614.172 231.819 611.618 228.85 611.618 224.219C611.618 219.587 614.172 216.619 618.031 216.619C621.89 216.619 624.443 219.587 624.443 224.219C624.443 228.85 621.89 231.819 618.031 231.819Z" fill="#F39712"/>
<path d="M643.622 221.666H638.337V216.916H649.915V212.938H633.765V235.5H643.622C648.669 235.5 651.756 232.887 651.756 228.494C651.756 224.278 648.669 221.666 643.622 221.666ZM643.087 231.759H638.278V225.288H643.087C645.759 225.288 647.125 226.416 647.125 228.494C647.125 230.631 645.759 231.759 643.087 231.759Z" fill="#F39712"/>
<path d="M674.734 212.938H657.159V223.506C657.159 231.047 656.625 231.284 654.784 231.284H653.597V235.5C654.903 235.619 655.497 235.619 656.09 235.619C660.662 235.619 661.672 232.413 661.672 223.863V217.094H670.162V235.5H674.734V212.938Z" fill="#F39712"/>
<path d="M696.762 235.5H701.631L692.725 212.938H687.143L678.237 235.5H682.987L684.768 230.75H694.981L696.762 235.5ZM686.253 226.772L689.875 216.975L693.497 226.772H686.253Z" fill="#F39712"/>
<path d="M713.803 235.797C718.612 235.797 722.175 233.303 723.481 229.206L719.206 227.663C718.315 230.513 716.415 231.938 713.743 231.938C709.943 231.938 707.568 228.969 707.568 224.219C707.568 219.469 710.003 216.5 713.743 216.5C716.415 216.5 718.315 217.925 719.206 220.775L723.481 219.231C722.175 215.016 718.612 212.641 713.803 212.641C707.331 212.641 702.937 217.331 702.937 224.219C702.937 231.225 707.272 235.797 713.803 235.797Z" fill="#F39712"/>
<path d="M742.303 212.938V221.844H732.209V212.938H727.637V235.5H732.209V226H742.303V235.5H746.875V212.938H742.303Z" fill="#F39712"/>
<path d="M762.609 235.797C769.2 235.797 773.712 231.106 773.712 224.219C773.712 217.212 769.318 212.641 762.609 212.641C756.018 212.641 751.565 217.331 751.565 224.219C751.565 231.225 755.959 235.797 762.609 235.797ZM762.609 231.819C758.75 231.819 756.197 228.85 756.197 224.219C756.197 219.587 758.75 216.619 762.609 216.619C766.469 216.619 769.022 219.587 769.022 224.219C769.022 228.85 766.469 231.819 762.609 231.819Z" fill="#F39712"/>
<path d="M775.137 210.562H779.59V206.762H775.137V210.562ZM781.728 210.562H786.181V206.762H781.728V210.562ZM778.344 235.5H782.915V212.938H778.344V235.5Z" fill="#F39712"/>
<path d="M813.434 223.981C815.275 222.972 816.344 221.191 816.344 218.934C816.344 215.253 813.612 212.938 809.1 212.938H798.709V235.5H809.278C813.969 235.5 816.759 233.125 816.759 229.325C816.759 226.831 815.572 224.991 813.434 223.981ZM808.387 216.678C810.703 216.678 811.89 217.569 811.89 219.409C811.89 221.25 810.703 222.141 808.387 222.141H803.103V216.678H808.387ZM808.447 231.759H803.103V225.762H808.447C811 225.762 812.247 226.772 812.247 228.791C812.247 230.809 811 231.759 808.447 231.759Z" fill="#F39712"/>
<path d="M821.45 235.5H826.022V212.938H821.45V235.5Z" fill="#F39712"/>
<path d="M842.053 211.275C845.378 211.275 847.515 209.613 847.812 206.941L844.547 206.466C844.309 207.831 843.359 208.544 842.053 208.544C840.747 208.544 839.797 207.831 839.559 206.466L836.293 206.941C836.59 209.613 838.728 211.275 842.053 211.275ZM847.337 212.938L836.828 228.434V212.938H832.315V235.5H836.709L847.337 219.884V235.5H851.79V212.938H847.337Z" fill="#F39712"/>
<path d="M867.347 235.797C872.156 235.797 875.719 233.303 877.025 229.206L872.75 227.663C871.859 230.513 869.959 231.938 867.287 231.938C863.487 231.938 861.112 228.969 861.112 224.219C861.112 219.469 863.547 216.5 867.287 216.5C869.959 216.5 871.859 217.925 872.75 220.775L877.025 219.231C875.719 215.016 872.156 212.641 867.347 212.641C860.875 212.641 856.481 217.331 856.481 224.219C856.481 231.225 860.815 235.797 867.347 235.797Z" fill="#F39712"/>
<path d="M890.8 221.25H885.753V212.938H881.181V235.5H890.8C896.025 235.5 899.231 232.769 899.231 228.375C899.231 223.922 896.025 221.25 890.8 221.25ZM890.443 231.641H885.753V224.931H890.443C893.175 224.931 894.6 226.059 894.6 228.256C894.6 230.513 893.175 231.641 890.443 231.641Z" fill="#F39712"/>
<path d="M921.794 231.344C921.14 231.344 920.725 230.928 920.725 230.275V222.022H916.628L922.506 212.938H917.459L911.997 222.022H908.137V212.938H903.565V235.5H908.137V226.059H916.153V231.403C916.153 234.075 917.637 235.5 920.25 235.5H922.565V231.344H921.794Z" fill="#F39712"/>
<path d="M936.162 235.797C942.753 235.797 947.265 231.106 947.265 224.219C947.265 217.212 942.872 212.641 936.162 212.641C929.572 212.641 925.119 217.331 925.119 224.219C925.119 231.225 929.512 235.797 936.162 235.797ZM936.162 231.819C932.303 231.819 929.75 228.85 929.75 224.219C929.75 219.587 932.303 216.619 936.162 216.619C940.022 216.619 942.575 219.587 942.575 224.219C942.575 228.85 940.022 231.819 936.162 231.819Z" fill="#F39712"/>
<path d="M966.622 223.981C968.462 222.972 969.531 221.191 969.531 218.934C969.531 215.253 966.8 212.938 962.287 212.938H951.897V235.5H962.465C967.156 235.5 969.947 233.125 969.947 229.325C969.947 226.831 968.759 224.991 966.622 223.981ZM961.575 216.678C963.89 216.678 965.078 217.569 965.078 219.409C965.078 221.25 963.89 222.141 961.575 222.141H956.29V216.678H961.575ZM961.634 231.759H956.29V225.762H961.634C964.187 225.762 965.434 226.772 965.434 228.791C965.434 230.809 964.187 231.759 961.634 231.759Z" fill="#F39712"/>
<path d="M984.078 235.797C990.669 235.797 995.181 231.106 995.181 224.219C995.181 217.212 990.787 212.641 984.078 212.641C977.487 212.641 973.034 217.331 973.034 224.219C973.034 231.225 977.428 235.797 984.078 235.797ZM984.078 231.819C980.219 231.819 977.665 228.85 977.665 224.219C977.665 219.587 980.219 216.619 984.078 216.619C987.937 216.619 990.49 219.587 990.49 224.219C990.49 228.85 987.937 231.819 984.078 231.819Z" fill="#F39712"/>
<path d="M996.606 210.562H1001.06V206.762H996.606V210.562ZM1003.2 210.562H1007.65V206.762H1003.2V210.562ZM999.812 235.5H1004.38V212.938H999.812V235.5Z" fill="#F39712"/>
<path d="M1035.91 235.5H1040.78L1031.87 212.938H1026.29L1017.39 235.5H1022.14L1023.92 230.75H1034.13L1035.91 235.5ZM1025.4 226.772L1029.02 216.975L1032.65 226.772H1025.4Z" fill="#F39712"/>
<path d="M1062.99 231.344V212.938H1045V222.972C1045 226.772 1044.82 229.503 1044.46 231.344H1041.97V240.25H1046.42V235.5H1061.27V240.25H1065.72V231.344H1062.99ZM1048.86 231.403C1049.21 229.087 1049.45 226.059 1049.45 222.972V217.034H1058.47V231.403H1048.86Z" fill="#F39712"/>
<path d="M1096.06 212.938H1089.35L1083 230.038L1076.7 212.938H1069.87V235.5H1074.33V218.519L1080.62 235.5H1085.37L1091.61 218.697V235.5H1096.06V212.938Z" fill="#F39712"/>
<path d="M1102.41 235.5H1106.98V212.938H1102.41V235.5Z" fill="#F39712"/>
<path d="M1127.94 212.938V221.844H1117.85V212.938H1113.28V235.5H1117.85V226H1127.94V235.5H1132.52V212.938H1127.94Z" fill="#F39712"/>
<path d="M1138.81 235.5H1143.38V212.938H1138.81V235.5Z" fill="#F39712"/>
<path d="M1158.94 235.797C1163.75 235.797 1167.31 233.303 1168.62 229.206L1164.34 227.663C1163.45 230.513 1161.55 231.938 1158.88 231.938C1155.08 231.938 1152.7 228.969 1152.7 224.219C1152.7 219.469 1155.14 216.5 1158.88 216.5C1161.55 216.5 1163.45 217.925 1164.34 220.775L1168.62 219.231C1167.31 215.016 1163.75 212.641 1158.94 212.641C1152.47 212.641 1148.07 217.331 1148.07 224.219C1148.07 231.225 1152.41 235.797 1158.94 235.797Z" fill="#F39712"/>
<path d="M1189.93 212.938H1169.8V217.094H1177.58V235.5H1182.15V217.094H1189.93V212.938Z" fill="#F39712"/>
<path d="M1203.23 212.938H1193.67V235.5H1198.24V227.188H1203.23C1208.46 227.188 1211.6 224.516 1211.6 220.062C1211.6 215.669 1208.46 212.938 1203.23 212.938ZM1202.7 223.506H1198.24V216.797H1202.7C1205.49 216.797 1206.97 217.925 1206.97 220.181C1206.97 222.378 1205.49 223.506 1202.7 223.506Z" fill="#F39712"/>
<path d="M1229.77 235.5H1234.64L1225.73 212.938H1220.15L1211.25 235.5H1216L1217.78 230.75H1227.99L1229.77 235.5ZM1219.26 226.772L1222.88 216.975L1226.51 226.772H1219.26Z" fill="#F39712"/>
<path d="M1257.02 231.344V212.938H1252.45V231.344H1242.72V212.938H1238.14V235.5H1255.3V240.25H1259.7V231.344H1257.02Z" fill="#F39712"/>
<path d="M1263.91 235.5H1268.48V212.938H1263.91V235.5Z" fill="#F39712"/>
<path d="M1271.57 210.562H1276.02V206.762H1271.57V210.562ZM1278.16 210.562H1282.62V206.762H1278.16V210.562ZM1274.78 235.5H1279.35V212.938H1274.78V235.5Z" fill="#F39712"/>
</svg>
