<svg width="306" height="350" viewBox="0 0 306 350" fill="none" xmlns="http://www.w3.org/2000/svg">
<path d="M124.73 90.5187C122.376 91.9561 120.182 94.7175 119.325 97.3225C114.957 110.577 130.641 121.023 140.584 111.482C152.54 100.009 138.845 81.8992 124.73 90.5187Z" fill="#1E62C7"/>
<path d="M99.1077 11.4594C82.8362 13.5248 69.3507 15.377 69.1405 15.5762C68.929 15.7742 80.9604 31.8229 95.8761 51.2393L122.994 86.5431L127.732 84.914L132.469 83.285L135.217 47.5449C136.729 27.8889 138.004 10.8139 138.05 9.59961C138.161 6.68821 135.814 6.80043 99.1077 11.4594Z" fill="#F7A708"/>
<path d="M166.46 3.42628L140.022 6.7626L137.104 45.0925C137.009 46.3434 136.916 47.5654 136.824 48.7583C135.057 71.876 134.123 84.0883 137.182 85.1908C140.607 86.4254 149.039 73.7276 166.912 46.81L166.967 46.7279L166.998 46.6807C167.794 45.4821 168.608 44.2555 169.442 43.0007C184.766 19.9352 197.303 0.784707 197.303 0.445526C197.303 -0.427012 195.976 -0.2984 166.46 3.42628Z" fill="#FCC300"/>
<path d="M171.354 43.4849C142.414 87.4093 141.614 88.8329 145.096 90.1707C148.262 91.3875 207.374 61.7678 207.374 58.9636C207.374 55.8252 199.672 3.04675 199.135 2.50583C198.877 2.24608 186.374 20.6866 171.354 43.4849Z" fill="#FFC624"/>
<path d="M175.554 78.723C149.44 91.8868 146.997 93.3935 148.173 95.5951C150.183 99.3563 149.691 105.986 147.082 110.269L144.711 114.164L162.81 130.162C172.764 138.961 181.641 146.441 182.536 146.785C183.723 147.241 187.018 136.572 194.717 107.348C200.522 85.3137 205.523 66.5769 205.829 65.7094C206.749 63.1031 205.33 63.7121 175.554 78.723Z" fill="#FCC300"/>
<path d="M208.15 63.818C203.657 79.0105 185.972 146.51 186.378 146.917C187.009 147.549 268.203 64.8204 268.845 62.8938C269.126 62.0477 258.971 61.6115 239.037 61.6115C211.331 61.6115 208.748 61.7955 208.15 63.818Z" fill="#F7A708"/>
<path d="M230.2 105.277C207.956 127.96 189.967 146.729 190.224 146.988C190.593 147.356 274.107 121.174 274.939 120.428C275.405 120.01 271.742 65.1357 271.212 64.6061C270.899 64.2921 252.444 82.5952 230.2 105.277Z" fill="#FCC300"/>
<path d="M188.491 151.377C190.159 152.932 273.121 197.924 273.543 197.503C273.81 197.236 274.417 180.452 274.893 160.206C275.732 124.483 275.687 123.399 273.353 123.54C272.031 123.62 253.105 129.449 231.294 136.496L228.39 137.434C192.222 149.118 188.147 150.434 188.25 151.089C188.264 151.172 188.344 151.244 188.435 151.326L188.456 151.345L188.475 151.363L188.491 151.377Z" fill="#FED324"/>
<path d="M185.973 153.369C185.973 153.986 187.956 164.329 190.379 176.353C192.803 188.377 194.785 198.402 194.785 198.631C194.785 198.861 211.611 199.049 232.175 199.049C254.097 199.049 269.07 198.585 268.369 197.925C267.711 197.309 249.328 187.021 227.517 175.065C205.706 163.11 187.436 153.084 186.917 152.787C186.398 152.49 185.973 152.751 185.973 153.369Z" fill="#F6A708"/>
<path d="M140.022 117.414C138.638 118.241 134.755 118.932 131.394 118.949L125.283 118.982L118.09 139.156C113.877 150.968 111.453 159.473 112.241 159.675C113.66 160.037 180.944 150.293 181.597 149.629C182.056 149.162 145.087 116.663 143.593 116.222C143.014 116.051 141.407 116.588 140.022 117.414Z" fill="#F7A708"/>
<path d="M88.062 115.773C74.7162 119.768 63.5496 123.284 63.2462 123.587C62.8144 124.019 96.5244 150.957 106.761 158.361C108.698 159.762 109.633 157.883 116.351 139.079L123.795 118.244L119.055 113.255C116.448 110.51 113.868 108.32 113.321 108.387C112.774 108.455 101.408 111.779 88.062 115.773Z" fill="#FBBA00"/>
<path d="M60.0813 100.067V121.957L67.9495 119.688C72.2777 118.44 84.4766 114.933 95.0603 111.896L114.304 106.373L113.944 102.043L113.585 97.7134L97.2193 91.7556C88.2181 88.4786 76.1803 84.0844 70.4674 81.9888L60.0813 78.1796V100.067Z" fill="#FED324"/>
<path d="M63.5207 47.3268C61.6348 63.0489 60.2311 76.0134 60.4011 76.1369C60.5723 76.2605 72.8165 80.7695 87.6125 86.1573L114.513 95.9519L117.466 92.3369C119.09 90.3472 120.434 88.1533 120.451 87.4598C120.49 85.9051 69.0637 18.7411 67.8337 18.7411C67.3465 18.7411 65.4065 31.6047 63.5207 47.3268Z" fill="#FCC300"/>
<path d="M59.6042 129.361C58.0192 140.031 54.7473 180.258 55.412 180.922C56.2064 181.718 106.596 162.265 106.636 161.148C106.657 160.537 78.7384 138.389 64.9798 128.1L60.3104 124.607L59.6042 129.361Z" fill="#F7A708"/>
<path d="M28.3969 124.555C21.0109 124.957 14.5954 125.659 14.1422 126.114C13.689 126.569 21.9991 138.869 32.608 153.447C47.0113 173.238 52.1174 179.417 52.7645 177.838C53.2416 176.674 54.6818 163.948 55.9647 149.559L58.2987 123.395L50.0629 123.61C45.5333 123.728 35.783 124.154 28.3969 124.555Z" fill="#FCC300"/>
<path d="M10.441 133.621C10.0281 136.666 7.9836 157.03 5.89758 178.875C3.81156 200.72 1.54173 223.924 0.853105 230.44C0.164478 236.956 -0.177947 242.509 0.0927201 242.78C1.23707 243.925 52.4573 183.455 51.4515 182.145C50.8711 181.386 42.5723 169.985 33.0109 156.809C32.0562 155.493 31.1437 154.235 30.2712 153.032L30.2636 153.022L30.2462 152.998L30.2435 152.994C16.7555 134.397 12.8738 129.045 11.4848 129.63C10.9236 129.867 10.7693 131.072 10.5527 132.765C10.5178 133.039 10.4812 133.324 10.441 133.621Z" fill="#F7A708"/>
<path d="M28.3743 213.882C14.744 229.623 3.79393 242.703 4.04068 242.951C4.67895 243.59 99.1253 221.252 99.0221 220.487C98.9315 219.806 55.3503 185.991 53.9806 185.537C53.5274 185.387 42.0045 198.142 28.3743 213.882Z" fill="#FCC300"/>
<path d="M51.0536 234.114C25.6626 240.135 5.12209 245.295 5.40786 245.581C6.22616 246.4 92.127 266.904 92.6646 266.407C93.1127 265.993 100.359 226.037 100.364 223.951C100.368 222.446 99.5546 222.614 51.0536 234.114Z" fill="#F7A708"/>
<path d="M2.80065 247.924C5.46325 250.553 67.9596 298.861 69.3331 299.35C72.0372 300.314 92.025 269.201 89.4002 268.113C88.1614 267.599 69.0196 262.889 46.8627 257.645C24.7058 252.402 5.44437 247.79 4.05956 247.395C2.39779 246.922 1.96976 247.101 2.80065 247.924Z" fill="#FBC200"/>
<path d="M82.1539 285.913C76.6373 294.105 72.3658 301.317 72.6629 301.94C73.339 303.36 109.316 331.443 110.458 331.443C110.92 331.443 107.326 317.825 102.472 301.181C97.6171 284.537 93.3167 270.942 92.9151 270.969C92.5122 270.995 87.6704 277.721 82.1539 285.913Z" fill="#F8A809"/>
<path d="M96.8492 275.963C97.1967 277.004 101.03 290.054 105.37 304.964C109.709 319.874 113.458 332.292 113.7 332.561C114.813 333.795 130.55 322.199 129.552 320.879C128.964 320.101 121.78 309.818 113.585 298.029C98.19 275.879 95.7489 272.661 96.8492 275.963Z" fill="#FCC300"/>
<path d="M81.4829 173.62C67.981 178.974 57.1619 183.905 57.4401 184.581C58.2496 186.543 100.927 219.456 101.215 218.34C101.359 217.786 102.668 207.119 104.124 194.636C105.581 182.153 107.094 170.095 107.486 167.842C107.541 167.527 107.599 167.229 107.653 166.951C107.867 165.855 108.024 165.056 107.695 164.65C106.815 163.56 102.449 165.294 86.3649 171.683C84.8446 172.286 83.2195 172.932 81.4829 173.62Z" fill="#FED324"/>
<path d="M142.228 157.384C125.439 159.955 111.309 162.451 110.828 162.933C109.903 163.86 102.93 216.998 103.627 217.803C103.946 218.17 155.468 174.352 176.531 155.801L180.308 152.475L176.531 152.592C174.454 152.658 159.017 154.814 142.228 157.384Z" fill="#FCC300"/>
<path d="M144.764 185.561C123.829 203.635 106.86 218.583 107.054 218.777C107.648 219.371 190.922 199.556 191.885 198.592C192.821 197.653 184.97 154.886 183.604 153.493C183.176 153.056 165.698 167.486 144.764 185.561Z" fill="#FCC300"/>
<path d="M102.378 225.287C101.151 229.446 95.0502 266.015 95.5072 266.473C96.0951 267.061 193.685 263.615 194.317 262.984C194.574 262.726 178.781 255.653 159.22 247.267C139.66 238.88 119.01 230.024 113.332 227.587C104.201 223.666 102.935 223.4 102.378 225.287Z" fill="#FED324"/>
<path d="M183.455 279.373C163.912 295.645 134.196 321.616 134.633 322.045C134.933 322.338 165.989 324.465 184.631 325.468L190.214 325.769L194.313 299.92C196.568 285.704 198.714 272.511 199.084 270.605C200.037 265.697 199.562 265.964 183.455 279.373Z" fill="#F6A708"/>
<path d="M143.17 267.206C131.053 267.693 115.554 268.16 108.73 268.244C107.452 268.26 106.278 268.254 105.212 268.248C101.301 268.227 98.8537 268.214 98.118 269.331C96.8872 271.2 100.446 276.233 109.957 289.684L109.959 289.686L109.97 289.702L109.974 289.708C111.518 291.892 113.219 294.297 115.082 296.947L132.276 321.407L135.521 318.468C147.63 307.491 163.866 293.491 178.735 281.205C188.255 273.339 196.044 266.672 196.044 266.389C196.044 265.712 170.636 266.104 143.17 267.206Z" fill="#FCC300"/>
<path d="M200.649 271.118C197.75 287.315 192.166 325.456 192.625 325.917C194.142 327.435 267.714 351.232 266.927 349.95C265.52 347.651 206.032 271.852 203.578 269.226C201.485 266.988 201.376 267.06 200.649 271.118Z" fill="#FBC200"/>
<path d="M206.951 270.446C224.978 293.535 268.28 348.671 269.01 349.467C269.516 350.018 274.929 337.112 281.039 320.784C287.148 304.458 291.911 290.871 291.62 290.591C291.33 290.311 272.397 284.894 249.548 278.553C226.699 272.212 206.909 266.694 205.569 266.292C203.568 265.69 203.813 266.426 206.951 270.446Z" fill="#F7A708"/>
<path d="M254.613 247.263C217.336 259.792 206.142 264.015 208.033 264.833C211.621 266.388 292.096 288.618 292.536 288.176C293.941 286.769 306.173 230.59 305.056 230.671C304.301 230.725 281.6 238.192 254.613 247.263Z" fill="#FCC300"/>
<path d="M239.729 230.849C220.48 247.502 204.938 261.334 205.19 261.588C205.959 262.357 304.311 229.165 304.311 228.136C304.311 227.278 281.331 205.599 276.615 202.008C275.066 200.829 268.418 206.028 239.729 230.849Z" fill="#F7A607"/>
<path d="M195.858 200.917C195.228 201.547 200.973 259.862 201.742 260.646C202.316 261.232 269.567 203.061 270.11 201.509C270.534 200.297 197.061 199.712 195.858 200.917Z" fill="#FCC300"/>
<path d="M149.779 210.892C126.064 216.484 106.661 221.401 106.661 221.818C106.661 222.745 198.741 262.336 199.388 261.687C199.815 261.26 193.62 201.119 193.121 200.846C192.998 200.779 173.495 205.299 149.779 210.892Z" fill="#F7A708"/>
</svg>
